<svg width="40" height="40" viewBox="0 0 40 40" fill="none" xmlns="http://www.w3.org/2000/svg">
<path d="M20.0002 0.493652C8.95583 0.493652 0 9.44782 0 20.4938C0 29.3304 5.73066 36.8273 13.6773 39.4719C14.6769 39.6571 15.0438 39.0381 15.0438 38.5098C15.0438 38.0329 15.0253 36.4574 15.0167 34.7862C9.45262 35.996 8.27853 32.4264 8.27853 32.4264C7.36874 30.1147 6.05788 29.5 6.05788 29.5C4.24326 28.2587 6.19466 28.2842 6.19466 28.2842C8.20302 28.4253 9.26053 30.3452 9.26053 30.3452C11.0443 33.4028 13.9393 32.5188 15.0806 32.0078C15.2601 30.7151 15.7784 29.8328 16.3504 29.3334C11.9081 28.8277 7.23825 27.1127 7.23825 19.4492C7.23825 17.2657 8.01954 15.4815 9.29894 14.0809C9.09129 13.5772 8.40671 11.543 9.49269 8.78808C9.49269 8.78808 11.1722 8.25056 14.9942 10.8382C16.5895 10.395 18.3005 10.1728 20.0002 10.1652C21.6999 10.1728 23.4121 10.395 25.0105 10.8382C28.8278 8.25056 30.505 8.78808 30.505 8.78808C31.5936 11.543 30.9087 13.5772 30.7011 14.0809C31.9834 15.4815 32.7594 17.2657 32.7594 19.4492C32.7594 27.131 28.0806 28.8224 23.6271 29.3175C24.3444 29.9382 24.9836 31.1553 24.9836 33.0212C24.9836 35.6973 24.9605 37.8511 24.9605 38.5098C24.9605 39.042 25.3205 39.6657 26.3343 39.4693C34.2766 36.8217 40 29.3274 40 20.4938C40 9.44782 31.0455 0.493652 20.0002 0.493652ZM7.49071 28.9843C7.44666 29.0837 7.29034 29.1135 7.14793 29.0452C7.00286 28.98 6.92139 28.8445 6.96842 28.7449C7.01147 28.6425 7.16813 28.614 7.31286 28.6826C7.45826 28.7478 7.54105 28.8846 7.49071 28.9843ZM8.4745 29.8621C8.37911 29.9506 8.19265 29.9095 8.06614 29.7697C7.93531 29.6303 7.91081 29.4438 8.00751 29.3541C8.10588 29.2656 8.28671 29.307 8.41786 29.4465C8.54869 29.5876 8.57419 29.7727 8.4745 29.8621ZM9.14941 30.9853C9.02687 31.0704 8.8265 30.9906 8.70263 30.8127C8.58009 30.6349 8.58009 30.4216 8.70528 30.3361C8.82948 30.2507 9.02687 30.3275 9.15239 30.504C9.2746 30.6849 9.2746 30.8982 9.14941 30.9853ZM10.2908 32.286C10.1812 32.4069 9.94772 32.3745 9.77682 32.2095C9.60195 32.0482 9.55327 31.8194 9.66322 31.6985C9.77417 31.5773 10.009 31.6114 10.1812 31.775C10.3548 31.936 10.4077 32.1665 10.2908 32.286ZM11.766 32.7251C11.7177 32.8818 11.4928 32.953 11.2662 32.8864C11.04 32.8179 10.892 32.6344 10.9377 32.4761C10.9847 32.3184 11.2106 32.2442 11.4388 32.3155C11.6647 32.3837 11.813 32.5658 11.766 32.7251ZM13.4448 32.9114C13.4505 33.0763 13.2584 33.2131 13.0206 33.2161C12.7815 33.2214 12.588 33.0879 12.5854 32.9256C12.5854 32.7591 12.7732 32.6236 13.0123 32.6196C13.2501 32.615 13.4448 32.7475 13.4448 32.9114ZM15.0941 32.8482C15.1226 33.0091 14.9573 33.1744 14.7212 33.2185C14.489 33.2609 14.274 33.1615 14.2446 33.0019C14.2158 32.8369 14.384 32.6717 14.6158 32.6289C14.8523 32.5879 15.0639 32.6846 15.0941 32.8482Z" fill="white"/>
</svg>
